<svg width="576" height="480" viewBox="0 0 576 480" fill="none" xmlns="http://www.w3.org/2000/svg">
<path d="M333.97 438.279C393.667 471.303 525.77 419.964 525.769 293.221C525.768 88.0854 338.806 53.0711 229.207 53.0711C32.6646 53.0711 -39.5106 275.139 193.749 293.221C401.664 309.338 206.521 367.772 333.97 438.279Z" fill="#FCDDD4"/>
<mask id="mask0" mask-type="alpha" maskUnits="userSpaceOnUse" x="0" y="0" width="576" height="480">
<path d="M333.916 438.279C393.612 471.303 525.715 419.964 525.714 293.221C525.713 88.0854 338.751 53.0711 229.153 53.0711C32.6099 53.0711 -39.5652 275.139 193.694 293.221C401.609 309.338 206.466 367.772 333.916 438.279Z" fill="#F6A182"/>
</mask>
<g mask="url(#mask0)">
<path opacity="0.7" d="M59 310.876C80.1564 283.391 136.192 229.795 191.085 235.292C259.7 242.164 129.331 371 191.085 371C252.838 371 282 212.961 326.6 212.961C371.2 212.961 276.854 329.772 326.6 336.644C376.346 343.515 417.515 171.733 472.408 170.015C527.3 168.298 415.8 310.876 505 310.876" stroke="url(#paint0_linear)" stroke-width="2"/>
<path d="M366.559 479.549L345.042 477.724L346.136 451.09L367.836 453.096L366.559 479.549Z" fill="#D88D6C"/>
<path d="M326.442 475.9C326.442 475.9 340.666 469.333 343.036 464.589C343.036 464.589 347.23 449.265 353.613 457.292C353.613 457.292 360.177 462.583 369.477 458.387L370.571 487.393L306.201 487.211C307.842 482.832 309.301 477.907 326.442 475.9Z" fill="url(#paint1_linear)"/>
<path d="M460.834 475.9L439.316 479.549L433.664 453.644L454.999 449.995L460.834 475.9Z" fill="#D88D6C"/>
<path d="M419.44 475.9C419.44 475.9 433.664 469.333 436.034 464.59C436.034 464.59 432.752 452.549 440.411 458.569C440.411 458.569 453.54 463.495 459.01 457.475L463.387 487.576L399.017 487.394C401.023 482.833 402.482 477.907 419.44 475.9Z" fill="url(#paint2_linear)"/>
<path d="M341.394 228.524C341.394 228.524 337.565 338.165 341.029 462.765C341.029 462.765 351.423 472.616 371.117 466.049C371.117 466.049 370.935 327.402 376.223 272.308C376.223 272.308 401.023 377.023 432.387 467.691C432.387 467.691 453.358 471.704 460.834 459.846C460.834 459.846 418.529 312.99 412.329 228.524H341.394Z" fill="url(#paint3_linear)"/>
<path d="M341.395 228.524H412.329C412.876 234.909 413.423 241.659 414.335 248.592C372.03 248.774 349.6 238.011 341.212 233.085C341.212 229.984 341.395 228.524 341.395 228.524Z" fill="#402B2B" fill-opacity="0.45" style="mix-blend-mode:multiply"/>
<path d="M566.911 381.428H458.482V465.155H566.911V381.428Z" fill="#8C5E5E"/>
<path d="M567.087 381.428H527.61V465.155H567.087V381.428Z" fill="#694646"/>
<path d="M553.577 381.428H543.4V393.013H553.577V381.428Z" fill="#A3774A"/>
<path d="M495.327 381.428H485.151V393.013H495.327V381.428Z" fill="#A3774A"/>
<path d="M495.806 381.428H387.377V465.155H495.806V381.428Z" fill="#F7A58D"/>
<path d="M495.98 381.428H456.504V465.155H495.98V381.428Z" fill="#F58A6B"/>
<path d="M482.471 381.428H472.295V393.013H482.471V381.428Z" fill="white"/>
<path d="M424.22 381.428H414.044V393.013H424.22V381.428Z" fill="white"/>
<path d="M523.458 300.154H415.029V383.881H523.458V300.154Z" fill="#F7A58D"/>
<path d="M523.633 300.154H484.156V383.881H523.633V300.154Z" fill="#F58A6B"/>
<path d="M510.124 300.154H499.947V311.739H510.124V300.154Z" fill="white"/>
<path d="M451.872 300.154H441.696V311.739H451.872V300.154Z" fill="white"/>
</g>
<path d="M348.506 44.8168H366.011L368.382 34.2358C368.382 34.2358 361.453 38.2493 359.811 35.5129C358.17 32.7764 358.535 33.871 356.894 34.2358C355.253 34.6007 355.253 32.4115 353.247 33.6885C351.058 35.148 347.776 42.0803 348.506 44.8168Z" fill="#6B1912"/>
<path d="M310.012 182.23L327.338 156.039L352.32 163.292C351.353 171.028 335.262 194.184 327.338 204.794L310.012 182.23Z" fill="url(#paint4_linear)"/>
<path d="M312.43 172.754C320.936 134.06 337.658 107.543 337.658 107.543C347.071 109.609 350.523 142.522 350.523 142.522C348.527 154.016 342.47 183.891 337.658 194.915L312.43 172.754Z" fill="url(#paint5_linear)"/>
<path d="M337.564 107.114C337.564 107.114 338.476 128.093 341.211 228.977C341.211 228.977 366.011 241.565 415.428 232.808C415.428 232.808 415.61 202.525 422.357 175.708C422.357 175.708 434.939 125.174 428.557 110.397C428.557 110.397 388.258 85.4043 337.564 107.114Z" fill="url(#paint6_linear)"/>
<path d="M375.858 87.1188L375.493 100.181C375.493 100.181 378.593 104.742 386.069 105.289C393.545 105.654 397.192 101.458 397.192 101.458L397.922 82.0107C388.622 86.0242 379.505 87.6661 375.858 87.1188Z" fill="url(#paint7_linear)"/>
<path d="M376.587 81.7556L375.858 96.1676C379.505 96.7149 388.623 95.073 397.74 91.0595L398.287 81.7556H376.587Z" fill="url(#paint8_linear)" style="mix-blend-mode:multiply"/>
<path d="M426.004 138.856C426.004 138.856 415.246 163.12 411.416 174.066C407.587 184.829 407.587 227.7 387.528 235.909C387.528 235.909 408.863 234.632 415.61 232.808C415.61 232.808 415.975 200.518 422.54 175.707C422.54 175.707 427.098 149.62 428.922 137.762L426.004 138.856Z" fill="#EE4D47" fill-opacity="0.29" style="mix-blend-mode:multiply"/>
<path d="M411.78 50.0128C411.416 50.1952 411.051 56.033 411.051 56.033L409.592 68.2558L402.845 73.5463L399.016 75.1881C399.016 75.1881 393.363 72.8165 394.092 70.6274C394.822 68.6206 398.469 39.7967 399.198 39.7967C399.927 39.7967 405.763 43.9926 405.763 43.9926L411.78 50.0128Z" fill="#402B2B"/>
<path d="M358.351 39.0667C356.71 39.0667 359.263 59.1341 359.263 59.1341L362.181 51.1072L364.187 41.4383L358.351 39.0667Z" fill="#402B2B"/>
<path d="M361.088 43.0804L357.988 68.8031C357.988 68.8031 356.894 90.5123 374.764 91.7893C392.635 92.8839 404.852 75.1882 404.852 75.1882C404.852 75.1882 407.041 77.7422 409.411 73.3638C411.599 68.9855 410.14 63.1477 407.041 62.6005C403.758 62.2356 402.299 64.0599 401.935 66.7963C401.57 69.5328 401.205 71.5395 401.205 71.5395L398.47 71.1747L400.476 50.0128C400.476 50.0128 396.282 41.8034 391.541 40.1615C386.8 38.5196 382.606 45.0871 382.606 45.0871C382.606 45.0871 378.229 45.9993 374.035 45.0871C369.841 44.175 367.106 43.0804 367.106 43.0804C367.106 43.0804 364.553 43.8101 361.088 43.0804Z" fill="url(#paint9_linear)"/>
<path d="M374.035 81.9381C380.052 82.303 380.964 75.3706 380.964 75.3706C380.964 75.3706 367.105 73.7288 366.741 73.5463C366.741 73.5463 365.647 81.3908 374.035 81.9381Z" fill="#893D43"/>
<path d="M380.417 77.5598C380.964 76.2828 381.146 75.3706 381.146 75.3706C381.146 75.3706 367.288 73.7288 366.923 73.5463C366.923 73.5463 366.741 74.4584 366.923 75.9179L380.417 77.5598Z" fill="#FFFEFF"/>
<path d="M379.868 36.5127V17.9047C390.992 18.452 402.48 20.6412 408.133 27.5735C414.88 35.7829 411.05 54.7557 411.05 54.7557C411.05 54.7557 402.845 53.8436 401.386 51.1071C399.927 48.3707 386.068 44.5396 375.492 45.0869C364.916 45.6342 359.81 44.5396 354.522 39.9788C353.428 39.0667 352.516 37.7897 351.786 36.3302H379.868V36.5127Z" fill="#402B2B"/>
<path d="M412.328 47.8235C412.328 47.8235 404.487 45.2695 391.358 44.1749C369.294 34.8709 359.811 36.5128 359.811 36.5128C359.811 36.5128 359.994 29.398 361.999 24.4724C364.005 19.5467 377.499 12.6144 388.805 13.709C400.111 14.8036 411.781 23.1953 413.605 31.2223C415.064 37.4249 412.328 47.8235 412.328 47.8235Z" fill="url(#paint10_linear)"/>
<path d="M399.018 45.087C396.647 33.7763 379.688 28.121 367.653 28.3034C355.8 28.4858 347.412 38.3371 346.136 45.087C345.589 47.8235 347.777 48.1883 348.506 45.8167C349.053 44.1748 350.147 36.3304 361.089 37.2425C372.03 38.1547 371.483 48.0059 376.953 48.9181C382.059 49.8302 387.894 46.1816 399.018 45.087Z" fill="url(#paint11_linear)"/>
<path d="M362.364 47.6409V46.3639C362.911 46.3639 367.105 45.8166 372.211 46.9112L372.029 48.9179C367.835 47.6409 362.364 47.6409 362.364 47.6409Z" fill="#402B2B"/>
<path d="M393.181 52.2018C389.898 50.3775 383.699 49.4653 383.699 49.2829L384.428 47.4585C384.61 47.4585 390.263 48.5531 393.91 50.9248L393.181 52.2018Z" fill="#402B2B"/>
<path d="M374.947 58.4045C374.947 58.4045 374.4 62.2356 372.941 63.3301C371.483 64.4247 368.93 65.3369 368.565 66.2491C368.2 66.9788 368.93 68.4382 370.571 68.9855C372.212 69.5328 372.394 70.0801 372.394 70.0801C372.394 70.0801 369.112 70.445 367.471 68.4382C365.83 66.4315 367.653 64.7896 369.294 63.8775C370.935 62.9653 371.665 62.6005 372.394 62.0532C373.306 61.5059 374.947 58.4045 374.947 58.4045Z" fill="#D87C60"/>
<path d="M382.788 60.4111C382.788 62.2354 384.064 63.8773 385.705 63.8773C387.347 63.8773 388.623 62.4178 388.623 60.4111C388.623 58.5868 387.347 56.9449 385.705 56.9449C384.064 56.9449 382.788 58.4043 382.788 60.4111Z" fill="#402B2B"/>
<path d="M362.729 58.0397C362.729 59.864 364.006 61.5058 365.647 61.5058C367.288 61.5058 368.564 60.0464 368.564 58.0397C368.564 56.2154 367.288 54.5735 365.647 54.5735C364.006 54.7559 362.729 56.2154 362.729 58.0397Z" fill="#402B2B"/>
<path d="M274.316 138.174C273.557 136.758 274.09 134.995 275.506 134.237C276.922 133.478 278.685 134.011 279.444 135.427L289.061 153.372L283.933 156.12L274.316 138.174Z" fill="white"/>
<path d="M276.172 141.554L281.254 138.83L292.245 159.34L287.163 162.064L276.172 141.554Z" fill="#822626"/>
<path d="M350.709 193.706C348.453 189.193 348.963 185.648 349.5 184.439C351.784 185.782 356.512 189.193 357.156 192.095C357.801 194.996 356.35 198.676 355.544 200.153C354.873 199.885 352.966 198.219 350.709 193.706Z" fill="url(#paint12_linear)"/>
<path d="M253.909 162.229C252.965 159.026 255.366 155.816 258.705 155.816H320.003C322.22 155.816 324.172 157.276 324.799 159.403L347.626 236.884C348.57 240.087 346.169 243.297 342.83 243.297H281.532C279.315 243.297 277.363 241.837 276.736 239.71L253.909 162.229Z" fill="white"/>
<path d="M252.66 158.278C251.821 155.106 254.213 152 257.494 152H318.873C321.142 152 323.127 153.528 323.707 155.722L346.836 243.203C347.675 246.375 345.283 249.481 342.002 249.481H280.623C278.354 249.481 276.369 247.953 275.789 245.759L252.66 158.278Z" fill="url(#paint13_linear)"/>
<path fill-rule="evenodd" clip-rule="evenodd" d="M416.341 191.944C429.653 172.606 431.477 114.046 431.477 114.046C419.228 115.639 413.378 127.764 409.62 135.552C407.783 139.359 406.446 142.13 405.106 142.13L399.465 177.992L343.054 188.065C343.007 188.13 342.961 188.195 342.915 188.259C340.138 188.331 330.493 188.875 324.194 192.886C324.194 192.886 320.932 195.332 322.807 197.046C323.704 198.025 323.418 199.086 323.132 200.146C322.847 201.206 322.561 202.267 323.458 203.246C324.214 204.073 324.333 204.927 324.449 205.769C324.608 206.922 324.764 208.048 326.556 209.04C326.556 209.04 326.229 211.65 328.594 212.712C328.701 212.76 328.814 212.812 328.933 212.865C331.431 213.99 336.304 216.184 337.238 215.328C337.589 215.006 338.465 214.37 339.448 213.656C341.205 212.379 343.303 210.855 343.356 210.437C343.438 209.784 343.275 208.642 341.154 208.478C341.154 208.478 343.193 208.071 345.314 206.604C347.517 205.3 349.883 201.875 349.883 201.875L352.028 196.974C404.294 201.429 416.341 191.944 416.341 191.944Z" fill="url(#paint14_linear)"/>
<path d="M401.023 140.863L395.918 167.681L394.629 174.43L349.5 184.439C351.649 186.319 355.867 192.014 355.544 199.75C369.513 201.765 400.915 203.86 414.776 196.124C417.304 194.153 422.979 187.054 425.458 174.43C441.688 118.607 428.558 110.397 428.558 110.397C410.323 112.769 401.023 140.863 401.023 140.863Z" fill="url(#paint15_linear)"/>
<path d="M242.568 320.843C241.222 314.64 239 308.775 236.039 303.382C235.635 302.64 235.164 301.831 234.692 301.09C231.259 295.36 227.019 290.236 222.105 285.787C221.499 285.18 220.826 284.64 220.153 284.101C214.902 279.719 208.912 276.146 202.45 273.584C201.642 273.247 200.834 272.978 200.026 272.708C193.564 270.416 186.564 269.135 179.361 269C178.958 269 178.486 269 178.082 269C177.679 269 177.207 269 176.804 269C169.534 269.135 162.601 270.416 156.139 272.708C155.331 272.978 154.523 273.315 153.715 273.584C147.253 276.146 141.262 279.719 136.012 284.101C135.339 284.64 134.666 285.247 134.06 285.787C129.146 290.236 124.838 295.36 121.473 301.09C121.001 301.831 120.598 302.64 120.126 303.382C117.165 308.775 114.943 314.64 113.597 320.843C113.395 321.719 113.26 322.596 113.059 323.472C112.385 327.247 112.049 331.09 112.049 335H244.049C244.049 331.09 243.712 327.18 243.039 323.472C242.905 322.596 242.77 321.719 242.568 320.843Z" fill="#FCDDD4"/>
<path d="M324.155 354.411C322.472 346.705 319.695 339.418 315.993 332.717C315.488 331.796 314.899 330.791 314.31 329.869C310.019 322.75 304.718 316.384 298.576 310.856C297.819 310.102 296.977 309.432 296.136 308.762C289.573 303.318 282.084 298.878 274.007 295.696C272.997 295.277 271.987 294.942 270.978 294.607C262.9 291.759 254.15 290.168 245.147 290C244.642 290 244.053 290 243.548 290C243.043 290 242.454 290 241.949 290C232.862 290.168 224.196 291.759 216.118 294.607C215.108 294.942 214.099 295.361 213.089 295.696C205.011 298.878 197.523 303.318 190.96 308.762C190.119 309.432 189.277 310.186 188.52 310.856C182.378 316.384 176.993 322.75 172.786 329.869C172.197 330.791 171.692 331.796 171.103 332.717C167.401 339.418 164.624 346.705 162.941 354.411C162.689 355.499 162.52 356.588 162.268 357.677C161.427 362.368 161.006 367.142 161.006 372H326.006C326.006 367.142 325.585 362.284 324.744 357.677C324.575 356.588 324.407 355.499 324.155 354.411Z" fill="white"/>
<path d="M344.427 338.029C333.458 338.029 329.344 328.427 329.344 315.053C329.344 301.678 325.573 290.704 310.834 290.018C291.638 289.333 293.352 307.851 293.352 330.485C293.352 359.291 283.068 340.773 268.671 356.891C256.331 370.608 272.099 394.957 276.898 402.158H338.942C340.999 398.386 346.14 389.127 351.968 377.81C364.994 353.804 355.396 338.029 344.427 338.029Z" fill="#F37753"/>
<path opacity="0.2" fill-rule="evenodd" clip-rule="evenodd" d="M314.947 342.487H311.862V385.495L298.903 368.209L296.435 370.061L311.862 390.639V402.158H314.947V369.664L328.019 353.444L325.618 351.506L314.947 364.747V342.487Z" fill="white"/>
<rect x="264.054" y="402" width="90" height="50" fill="#FCDDD4"/>
<defs>
<linearGradient id="paint0_linear" x1="282" y1="217.584" x2="282" y2="415.302" gradientUnits="userSpaceOnUse">
<stop stop-color="#F37753"/>
<stop offset="1" stop-color="white" stop-opacity="0"/>
</linearGradient>
<linearGradient id="paint1_linear" x1="338.386" y1="460.571" x2="338.386" y2="488.281" gradientUnits="userSpaceOnUse">
<stop stop-color="#F4A984"/>
<stop offset="1" stop-color="#EE4D47"/>
</linearGradient>
<linearGradient id="paint2_linear" x1="431.202" y1="450.593" x2="431.202" y2="488.416" gradientUnits="userSpaceOnUse">
<stop stop-color="#F4A984"/>
<stop offset="1" stop-color="#EE4D47"/>
</linearGradient>
<linearGradient id="paint3_linear" x1="400.206" y1="160.694" x2="400.206" y2="468.345" gradientUnits="userSpaceOnUse">
<stop stop-color="#822626"/>
<stop offset="0.943497" stop-color="#402B2B"/>
</linearGradient>
<linearGradient id="paint4_linear" x1="329.852" y1="156.039" x2="329.852" y2="204.011" gradientUnits="userSpaceOnUse">
<stop stop-color="#FFB3B6"/>
<stop offset="1" stop-color="#FFC8C1"/>
</linearGradient>
<linearGradient id="paint5_linear" x1="319.28" y1="201.765" x2="346.679" y2="116.342" gradientUnits="userSpaceOnUse">
<stop stop-color="#F4A984"/>
<stop offset="1" stop-color="#EE4D47"/>
</linearGradient>
<linearGradient id="paint6_linear" x1="383.964" y1="45.8286" x2="383.964" y2="231.179" gradientUnits="userSpaceOnUse">
<stop stop-color="#F4A984"/>
<stop offset="1" stop-color="#EE4D47"/>
</linearGradient>
<linearGradient id="paint7_linear" x1="394.18" y1="99.2404" x2="375.727" y2="107.199" gradientUnits="userSpaceOnUse">
<stop stop-color="#FFB3B6"/>
<stop offset="1" stop-color="#FFC8C1"/>
</linearGradient>
<linearGradient id="paint8_linear" x1="394.545" y1="90.0869" x2="375.988" y2="97.9458" gradientUnits="userSpaceOnUse">
<stop stop-color="#FFB3B6" stop-opacity="0.31"/>
<stop offset="1" stop-color="#FFC8C1"/>
</linearGradient>
<linearGradient id="paint9_linear" x1="355.612" y1="85.5432" x2="359.559" y2="50.2727" gradientUnits="userSpaceOnUse">
<stop stop-color="#FFB3B6"/>
<stop offset="1" stop-color="#FFC8C1"/>
</linearGradient>
<linearGradient id="paint10_linear" x1="386.922" y1="-4.78764" x2="386.922" y2="48.2554" gradientUnits="userSpaceOnUse">
<stop stop-color="#F4A984"/>
<stop offset="1" stop-color="#EE4D47"/>
</linearGradient>
<linearGradient id="paint11_linear" x1="388.309" y1="23.0468" x2="388.309" y2="78.1906" gradientUnits="userSpaceOnUse">
<stop stop-color="#F4A984"/>
<stop offset="1" stop-color="#EE4D47"/>
</linearGradient>
<linearGradient id="paint12_linear" x1="356.753" y1="185.245" x2="337.977" y2="192.679" gradientUnits="userSpaceOnUse">
<stop stop-color="#F4A984"/>
<stop offset="1" stop-color="#EE4D47"/>
</linearGradient>
<linearGradient id="paint13_linear" x1="348" y1="201" x2="170" y2="235" gradientUnits="userSpaceOnUse">
<stop stop-color="#F58A6B"/>
<stop offset="1" stop-color="#F7A58D"/>
</linearGradient>
<linearGradient id="paint14_linear" x1="413.518" y1="164.845" x2="318.985" y2="196.356" gradientUnits="userSpaceOnUse">
<stop stop-color="#FFB3B6"/>
<stop offset="1" stop-color="#FFC8C1"/>
</linearGradient>
<linearGradient id="paint15_linear" x1="380.929" y1="151.398" x2="436.004" y2="188.557" gradientUnits="userSpaceOnUse">
<stop stop-color="#F4A984"/>
<stop offset="1" stop-color="#EE4D47"/>
</linearGradient>
</defs>
</svg>
